<svg width="121" height="248" viewBox="0 0 121 248" fill="none" xmlns="http://www.w3.org/2000/svg">
<path id="Vector" d="M119.78 90.1484C120.677 91.2735 120.86 92.7882 120.243 94.0724C116.302 102.266 107.774 108.023 97.7663 108.237C84.0975 108.528 70.423 108.808 56.7543 109.099C54.6237 109.148 49.4886 109.576 44.4049 113.056C43.5996 113.616 41.886 114.818 40.1667 116.755C40.0067 116.931 39.8468 117.117 39.6869 117.304C39.1328 117.968 38.8529 118.802 38.8529 119.647V147.681C38.8529 148.46 39.0985 149.217 39.5612 149.859C40.7264 151.479 42.7085 153.794 45.673 155.853C45.9186 156.023 46.1642 156.187 46.4099 156.346C50.3511 158.877 55.0407 160.139 59.7816 160.177C59.793 160.177 59.8102 160.177 59.8216 160.177C62.0093 160.194 63.7686 161.9 63.7686 164.002V218.456C63.7686 234.558 49.4886 247.603 31.8786 247.603C14.2685 247.603 0 234.558 0 218.456V30.3935C0 30.2672 0 30.1355 0.00571198 30.0148C-0.182783 20.8276 4.36967 11.7063 13.0976 5.88337C18.7696 2.10753 25.3441 0.285461 31.8614 0.285461C41.6975 0.285461 51.4021 4.4345 57.6453 12.2606L119.78 90.1484Z" fill="#5F038B"/>
</svg>
